<?xml version="1.0" encoding="utf-8"?>
<!-- Generator: Adobe Illustrator 24.3.0, SVG Export Plug-In . SVG Version: 6.00 Build 0)  -->
<svg version="1.1" id="e9ecc617-883f-4dfc-9a55-ce5b125f3ffd"
	 xmlns="http://www.w3.org/2000/svg" xmlns:xlink="http://www.w3.org/1999/xlink" x="0px" y="0px" viewBox="0 0 983.5 576.2"
	 style="enable-background:new 0 0 983.5 576.2;" xml:space="preserve">
<style type="text/css">
	.st0{fill:#3F3D56;}
	.st1{fill:url(#SVGID_1_);}
	.st2{fill:#2F2E41;}
	.st3{fill:#FFB9B9;}
	.st4{fill:#E6E6E6;}
	.st5{opacity:0.1;enable-background:new    ;}
	.st6{opacity:0.1;}
	.st7{fill:#628099;}
</style>
<rect y="559.8" class="st0" width="324" height="2.2"/>
<linearGradient id="SVGID_1_" gradientUnits="userSpaceOnUse" x1="-194.5452" y1="274.4678" x2="-194.5452" y2="192.6557" gradientTransform="matrix(-1 0 0 1 -1.8559 -85.6414)">
	<stop  offset="0" style="stop-color:#808080;stop-opacity:0.25"/>
	<stop  offset="0.54" style="stop-color:#808080;stop-opacity:0.12"/>
	<stop  offset="1" style="stop-color:#808080;stop-opacity:0.1"/>
</linearGradient>
<path class="st1" d="M204.5,180.3c0.9,3,1.8,5.9,2.5,8.3l-0.4,0.2C206,186.5,205.3,183.6,204.5,180.3z M178.5,107.1l-0.1,0.1
	L178.5,107.1L178.5,107.1z"/>
<path class="st2" d="M146.6,530.4c-4.9,1.6-8.6,31.7-8.6,31.7l30.4,7.5c0,0,21.3,3.1,31.5,0s9.8-11.9-4.7-13.3s-24.8-20.1-24.8-20.1
	S151.5,528.8,146.6,530.4z"/>
<path class="st2" d="M110.9,536.5c0.1,2.4-0.3,4.8-1.2,7.1c-2.5,7.4-3.5,15.1-3.1,22.9c0.1,0.9,0.1,1.9,0.2,2.9
	c1.1,12.1,30.2,4.6,32.2,3.1s-5.8-36-5.8-36S110.4,531.6,110.9,536.5z"/>
<path class="st3" d="M142.9,98.2C142.9,98.2,142.9,98.3,142.9,98.2c0.6,1.5,23.6,57.7,19.4,39.4c-0.1-0.5-0.2-1.1-0.2-1.7
	c-0.4-4.5,1.8-9.5,5.2-14.4c2.2-3.1,4.6-6,7.3-8.7c1.3-1.4,2.7-2.7,4.1-4c3.8-3.6,7.8-6.8,11.3-9.6c6.3-4.9,11.2-8.1,11.2-8.1
	s-44.3-51.7-41.2-29.4c0.9,6.1,4.5,12.2,2,17.9c-1.6,3.6-3.9,6.8-6.7,9.6c-2.2,2.2-4.7,4.2-7.2,5.9c-1.1,0.7-2.1,1.4-2.9,1.9
	C143.7,97.8,142.9,98.2,142.9,98.2z"/>
<path class="st3" d="M294.8,164.9c0,0,1.7-1,4.4-2.1c7.7-3.4,23.2-8.3,25.1,5.3c2.6,18.2-14.8,16.1-14.8,16.1
	c-3.4-1.3-7-2.4-10.5-3.2c-1.8-0.5-3.6-0.6-5.4-0.3L294.8,164.9z"/>
<path class="st4" d="M292.2,182.1h5.2c3-4.1,0.7-19.7,0.7-19.7l-4.5,0.8L292.2,182.1z"/>
<path class="st2" d="M198.7,208.5l0.9,46l5.8,21.7c0,0,2.8,21,6.3,19.2s18.3,3.2,18.3,3.2l0.7-7.8l-5-45.7l-3.8-22.8
	c0,0-2.2-17.9-3.8-28.4s-15.6-2.2-15.6-2.2L198.7,208.5z"/>
<path class="st2" d="M215.4,185.7c9.4-2.6,21.6,0,21.6,0l55.1,1.2c9.8-13,3-25.2,3-25.2s-27-1.1-48.9-4.3s-36.3-19.5-36.3-19.5
	L215.4,185.7z"/>
<path class="st5" d="M159.9,61.8c-3.1-22.3,41.2,29.4,41.2,29.4s-4.9,3.1-11.2,8.1c-0.6,0-1.2,0-1.8,0c-13.6,0-22.9-8.5-28.3-20
	C162,74.2,160.9,68.6,159.9,61.8z"/>
<path class="st3" d="M156.2,68.7c0-16.7,13.6-30.3,30.4-30.2c16.7,0,30.3,13.6,30.2,30.4c0,16.7-13.6,30.3-30.4,30.2
	c-16.7,0-30.2-13.5-30.2-30.2C156.2,68.8,156.2,68.7,156.2,68.7z"/>
<path class="st4" d="M141.2,198.9l1.6-100.7l17.6,9.2l14.6,3.5l3.7-2.2l0.3-0.2l0.6-0.3c0,0,0.2,0.4,0.6,1.2
	c3.2,6.8,18.7,39.8,18.4,42.6c-0.3,3.1,11.1,42.7,11.1,42.7l0,0l-5.5,37.5c0,0,10.5,26.1,7.7,35.7s-78.1,3-78.1,3L141.2,198.9z"/>
<path class="st2" d="M170.7,114l5.9,7.5l0.9,2.2c3.3,7.7,5.2,16,5.6,24.4v9.8l1.2,78.2l6.7,12l1.2-14.9l-2.7-83.7l-3.7-18.9l-2-12
	c-1.1-2.1-2-4.3-2.8-6.5c-2-5.2-7.2-3.8-7.2-3.8L170.7,114z"/>
<path class="st4" d="M144.9,96.6l0.2,0.4l1.2,3l1.4,3.4c1.6,1,3.1,2.2,4.5,3.6c4.7,4.2,11.4,10.9,15,14.6c1.5,1.5,2.5,2.5,2.5,2.5
	c1.8-1.6,3.6-6.9,4.8-11.2c0.2-0.7,0.4-1.3,0.5-1.9c0.6-2.3,1-4,1-4c-4.6-1.6-15.3-12.1-20.8-17.7c-2.2,2.2-4.7,4.2-7.2,5.9
	C147.7,94.3,144.9,96.6,144.9,96.6z"/>
<path class="st2" d="M183.1,110.7c3.4,2.1,9,4.8,15.2,5.1c0,0,13.4,7.1,15.9,31.3s13,97.2,13,97.2s9.3,49.2,2.8,54.3l-7.3-60.2
	c0,0-12.9-34.8-13.8-41.2c-0.8-5.9-11-37.9-12.8-43.5c-0.2-0.5-0.3-0.8-0.3-0.8L185.5,124l-5.9-15.8
	C180.7,109.1,181.9,109.9,183.1,110.7z"/>
<path class="st2" d="M109.7,441.1c0,0,10.3-71.2,7.5-80.8s1.9-80.6,1.9-80.6l1.6-13.3l0.9-7.5l0.4-3.1l1.8,0.6
	c17.4,5.1,35.2,8.3,53.3,9.8c4,0.3,8,0,11.9-1c7.1-1.6,20.9-3.6,23.3-5.3c0,0,0.8,2.2,1.9,5.8c2.4,8.4,5.9,24.3,3.2,38l-4.2,27.5
	c0,0-1.7,28.1-7.1,44.9l-4.8,22.9l-6.3,46.7c-3.1,12.4-5.4,25.1-6.7,37.8c-2.3,21.2-15.4,56.3-15.4,56.3s-27.8,3.8-28.7-5.6
	l9.6-73.6l8.9-105.4c0,0-9.7,65.8-15.2,80c0,0-7.7,80.8-10.3,93.2s-4.4,15.7-4.4,15.7s-16.3,6-23.6-5.1c0,0-2.1-32.7-3.7-44.4
	C104,482.7,109.7,441.1,109.7,441.1z"/>
<path class="st3" d="M122.5,281.8l11.5,5.6l-13.7,25.9c-5.2-4.8-4.5-24-4.5-24L122.5,281.8z"/>
<polygon class="st4" points="127.5,281.8 132.7,285.9 125.7,296.5 116.2,300 115.4,293 "/>
<g class="st6">
	<path d="M212.3,259.9c0,0,0-0.1,0-0.1c-0.1,0.1-0.3,0.2-0.5,0.3L212.3,259.9z"/>
</g>
<path class="st2" d="M82.7,296.3c6.3,7.3,33.7,8.7,33.7,8.7l21.4-33.7l5.8-9.1c0,0,6.4-4.5,18.5-24.5s11.7-35.5,11-47.1
	s-8.2-44.7-8.2-44.7c-0.7-3.4-1.7-6.7-2.8-9.9c-2.6-8.3-6.6-19.8-9.8-29c-0.6-1.7-1.1-3.2-1.7-4.7c-1-2.8,4-13.5,4-13.5
	c-1.8,3.5-12.9,9.4-16.8,11.8c-10.4,6.6-25,9.3-25,9.3c-23.5,3.4-19.1,27.7-19.1,27.7s-0.3,94.3,1.2,105.6S82.7,296.3,82.7,296.3z"
	/>
<path class="st5" d="M94.6,137.5c0,0-10,43.3-12.7,70s7.6,43.8,7.6,43.8l22.2,49.2c7.6-2,23.1-18.1,23.1-18.1l-22.2-61.5
	c0,0,8.2-31.1,13.4-59.7s-8.5-41.4-8.5-41.4C94.6,111.1,94.6,137.5,94.6,137.5z"/>
<path class="st2" d="M93.6,137.5c0,0-10,43.3-12.7,70s7.6,43.8,7.6,43.8l22.2,49.2c7.6-2,23.1-18.1,23.1-18.1l-22.2-61.5
	c0,0,8.2-31.1,13.4-59.7s-8.5-41.4-8.5-41.4C93.6,111.1,93.6,137.5,93.6,137.5z"/>
<path class="st2" d="M137.4,290.2l-6.1,17.5l-6.8,9.3c0,0-5.1,3.4-6.4-3s16-30.3,16-30.3C136.8,282.6,137.4,290.2,137.4,290.2z"/>
<path class="st2" d="M158.4,85.1c0,0-31.7-43.4,8.2-52.8c0,0,11.3-17,25.2-8.6c6.8,4,14.6,6.1,22.5,6c6.7,0,13.2,2.6,12,13.2
	c-2.3,21.1-15.2,17.6-15.2,17.6s-35-15.7-36.1,1.9S158.4,85.1,158.4,85.1z"/>
<circle class="st4" cx="531.3" cy="6.8" r="6.8"/>
<circle class="st4" cx="565.8" cy="6.8" r="6.8"/>
<circle class="st4" cx="600.3" cy="6.8" r="6.8"/>
<circle class="st4" cx="634.8" cy="6.8" r="6.8"/>
<circle class="st4" cx="669.3" cy="6.8" r="6.8"/>
<circle class="st4" cx="531.3" cy="41.7" r="6.8"/>
<circle class="st4" cx="565.8" cy="41.7" r="6.8"/>
<circle class="st4" cx="600.3" cy="41.7" r="6.8"/>
<circle class="st7" cx="634.8" cy="41.7" r="6.8"/>
<circle class="st4" cx="669.3" cy="41.7" r="6.8"/>
<circle class="st4" cx="738.2" cy="41.7" r="6.8"/>
<circle class="st4" cx="531.3" cy="76.7" r="6.8"/>
<circle class="st4" cx="565.8" cy="76.7" r="6.8"/>
<circle class="st4" cx="600.3" cy="76.7" r="6.8"/>
<circle class="st4" cx="634.8" cy="76.7" r="6.8"/>
<circle class="st4" cx="669.3" cy="76.7" r="6.8"/>
<circle class="st4" cx="531.3" cy="111.6" r="6.8"/>
<circle class="st4" cx="565.8" cy="111.6" r="6.8"/>
<circle class="st4" cx="600.3" cy="111.6" r="6.8"/>
<circle class="st4" cx="634.8" cy="111.6" r="6.8"/>
<circle class="st4" cx="669.3" cy="111.6" r="6.8"/>
<circle class="st4" cx="703.8" cy="111.6" r="6.8"/>
<circle class="st4" cx="738.2" cy="111.6" r="6.8"/>
<circle class="st4" cx="772.7" cy="111.6" r="6.8"/>
<circle class="st4" cx="807.2" cy="111.6" r="6.8"/>
<circle class="st4" cx="841.7" cy="111.6" r="6.8"/>
<circle class="st4" cx="669.3" cy="146.5" r="6.8"/>
<circle class="st7" cx="703.8" cy="146.5" r="6.8"/>
<circle class="st4" cx="738.2" cy="146.5" r="6.8"/>
<circle class="st4" cx="772.7" cy="146.5" r="6.8"/>
<circle class="st4" cx="807.2" cy="146.5" r="6.8"/>
<circle class="st4" cx="841.7" cy="146.5" r="6.8"/>
<circle class="st4" cx="669.3" cy="181.4" r="6.8"/>
<circle class="st4" cx="703.8" cy="181.4" r="6.8"/>
<circle class="st4" cx="738.2" cy="181.4" r="6.8"/>
<circle class="st4" cx="772.7" cy="181.4" r="6.8"/>
<circle class="st7" cx="807.2" cy="181.4" r="6.8"/>
<circle class="st4" cx="841.7" cy="181.4" r="6.8"/>
<circle class="st4" cx="669.3" cy="216.3" r="6.8"/>
<circle class="st4" cx="703.8" cy="216.3" r="6.8"/>
<circle class="st4" cx="738.2" cy="216.3" r="6.8"/>
<circle class="st4" cx="772.7" cy="216.3" r="6.8"/>
<circle class="st4" cx="807.2" cy="216.3" r="6.8"/>
<circle class="st4" cx="841.7" cy="216.3" r="6.8"/>
<circle class="st4" cx="531.3" cy="251.3" r="6.8"/>
<circle class="st4" cx="565.8" cy="251.3" r="6.8"/>
<circle class="st4" cx="600.3" cy="251.3" r="6.8"/>
<circle class="st4" cx="634.8" cy="251.3" r="6.8"/>
<circle class="st4" cx="669.3" cy="251.3" r="6.8"/>
<circle class="st4" cx="703.8" cy="251.3" r="6.8"/>
<circle class="st4" cx="738.2" cy="251.3" r="6.8"/>
<circle class="st4" cx="772.7" cy="251.3" r="6.8"/>
<circle class="st4" cx="807.2" cy="251.3" r="6.8"/>
<circle class="st4" cx="841.7" cy="251.3" r="6.8"/>
<circle class="st4" cx="531.3" cy="286.2" r="6.8"/>
<circle class="st4" cx="565.8" cy="286.2" r="6.8"/>
<circle class="st4" cx="531.3" cy="321.1" r="6.8"/>
<circle class="st4" cx="565.8" cy="321.1" r="6.8"/>
<circle class="st4" cx="634.8" cy="321.1" r="6.8"/>
<path class="st4" d="M978.5,80.4h-270c-2.8,0-5-2.2-5-5v-67c0-2.8,2.2-5,5-5h270c2.8,0,5,2.2,5,5v67
	C983.5,78.1,981.3,80.4,978.5,80.4z M708.5,5.4c-1.7,0-3,1.3-3,3v67c0,1.7,1.3,3,3,3h270c1.7,0,3-1.3,3-3v-67c0-1.7-1.3-3-3-3H708.5
	z"/>
<circle class="st7" cx="743.5" cy="41.9" r="21"/>
<path class="st4" d="M792,27.9c-1.9,0-3.5,1.6-3.5,3.5c0,1.9,1.6,3.5,3.5,3.5h93c1.9,0,3.5-1.6,3.5-3.5c0-1.9-1.6-3.5-3.5-3.5H792z"
	/>
<path class="st4" d="M792,48.9c-1.9,0-3.5,1.6-3.5,3.5c0,1.9,1.6,3.5,3.5,3.5h165c1.9,0,3.5-1.6,3.5-3.5s-1.6-3.5-3.5-3.5H792z"/>
<path class="st0" d="M631.5,216.4h-270c-2.8,0-5-2.2-5-5v-67c0-2.8,2.2-5,5-5h270c2.8,0,5,2.2,5,5v67
	C636.5,214.1,634.3,216.4,631.5,216.4z M361.5,141.4c-1.7,0-3,1.3-3,3v67c0,1.7,1.3,3,3,3h270c1.7,0,3-1.3,3-3v-67c0-1.7-1.3-3-3-3
	H361.5z"/>
<circle class="st7" cx="396.5" cy="177.9" r="21"/>
<path class="st4" d="M445,163.9c-1.9,0-3.5,1.6-3.5,3.5s1.6,3.5,3.5,3.5h97c1.9,0,3.5-1.6,3.5-3.5s-1.6-3.5-3.5-3.5H445z"/>
<path class="st4" d="M445,184.9c-1.9,0-3.5,1.6-3.5,3.5s1.6,3.5,3.5,3.5h165c1.9,0,3.5-1.6,3.5-3.5s-1.6-3.5-3.5-3.5H445z"/>
<path class="st4" d="M875.5,363.4h-270c-2.8,0-5-2.2-5-5v-67c0-2.8,2.2-5,5-5h270c2.8,0,5,2.2,5,5v67
	C880.5,361.1,878.3,363.4,875.5,363.4z M605.5,288.4c-1.7,0-3,1.3-3,3v67c0,1.7,1.3,3,3,3h270c1.7,0,3-1.3,3-3v-67c0-1.7-1.3-3-3-3
	H605.5z"/>
<circle class="st7" cx="640.5" cy="324.9" r="21"/>
<path class="st4" d="M689,310.9c-1.9,0-3.5,1.6-3.5,3.5s1.6,3.5,3.5,3.5h89c1.9,0,3.5-1.6,3.5-3.5s-1.6-3.5-3.5-3.5H689z"/>
<path class="st4" d="M689,331.9c-1.9,0-3.5,1.6-3.5,3.5s1.6,3.5,3.5,3.5h165c1.9,0,3.5-1.6,3.5-3.5c0-1.9-1.6-3.5-3.5-3.5H689z"/>
</svg>
